<?xml version="1.0" encoding="utf-8"?>
<svg version="1.1" xmlns:xlink="http://www.w3.org/1999/xlink" width="13px" height="13px" xmlns="http://www.w3.org/2000/svg">
  <g transform="matrix(1 0 0 1 -226 -31 )">
    <path d="M 10.71484375 6.87239583333333  C 10.81640625 6.77083333333333  10.8671875 6.64388020833333  10.8671875 6.49153645833333  C 10.8671875 6.33919270833333  10.81640625 6.21223958333333  10.71484375 6.11067708333333  L 7.65104166666667 3.046875  L 6.880859375 2.27669270833333  C 6.779296875 2.17513020833333  6.65234375 2.12434895833333  6.5 2.12434895833333  C 6.34765625 2.12434895833333  6.220703125 2.17513020833333  6.119140625 2.27669270833333  L 5.34895833333333 3.046875  L 2.28515625 6.11067708333333  C 2.18359375 6.21223958333333  2.1328125 6.33919270833333  2.1328125 6.49153645833333  C 2.1328125 6.64388020833333  2.18359375 6.77083333333333  2.28515625 6.87239583333333  L 3.05533854166667 7.642578125  C 3.15690104166667 7.744140625  3.28385416666667 7.794921875  3.43619791666667 7.794921875  C 3.58854166666667 7.794921875  3.71549479166667 7.744140625  3.81705729166667 7.642578125  L 5.41666666666667 6.04296875  L 5.41666666666667 10.2916666666667  C 5.41666666666667 10.4383680555556  5.47026909722222 10.5653211805556  5.57747395833333 10.6725260416667  C 5.68467881944444 10.7797309027778  5.81163194444444 10.8333333333333  5.95833333333333 10.8333333333333  L 7.04166666666667 10.8333333333333  C 7.18836805555556 10.8333333333333  7.31532118055556 10.7797309027778  7.42252604166667 10.6725260416667  C 7.52973090277778 10.5653211805556  7.58333333333333 10.4383680555556  7.58333333333333 10.2916666666667  L 7.58333333333333 6.04296875  L 9.18294270833333 7.642578125  C 9.29014756944444 7.74978298611111  9.41710069444444 7.80338541666667  9.56380208333333 7.80338541666667  C 9.71050347222222 7.80338541666667  9.83745659722222 7.74978298611111  9.94466145833333 7.642578125  L 10.71484375 6.87239583333333  Z M 12.1282552083333 3.2373046875  C 12.7094184027778 4.23318142361111  13 5.32074652777778  13 6.5  C 13 7.67925347222222  12.7094184027778 8.76681857638889  12.1282552083333 9.7626953125  C 11.5470920138889 10.7585720486111  10.7585720486111 11.5470920138889  9.7626953125 12.1282552083333  C 8.76681857638889 12.7094184027778  7.67925347222222 13  6.5 13  C 5.32074652777778 13  4.23318142361111 12.7094184027778  3.2373046875 12.1282552083333  C 2.24142795138889 11.5470920138889  1.45290798611111 10.7585720486111  0.871744791666667 9.7626953125  C 0.290581597222222 8.76681857638889  0 7.67925347222222  0 6.5  C 0 5.32074652777778  0.290581597222222 4.23318142361111  0.871744791666667 3.2373046875  C 1.45290798611111 2.24142795138889  2.24142795138889 1.45290798611111  3.2373046875 0.871744791666666  C 4.23318142361111 0.290581597222221  5.32074652777778 0  6.5 0  C 7.67925347222222 0  8.76681857638889 0.290581597222221  9.7626953125 0.871744791666666  C 10.7585720486111 1.45290798611111  11.5470920138889 2.24142795138889  12.1282552083333 3.2373046875  Z " fill-rule="nonzero" fill="#1787f9" stroke="none" transform="matrix(1 0 0 1 226 31 )" />
  </g>
</svg>